<svg xmlns="http://www.w3.org/2000/svg" viewBox="0 0 64 64" role="img" aria-label="Sangam portfolio logo">
  <defs>
    <linearGradient id="bg" x1="12%" y1="8%" x2="88%" y2="92%">
      <stop offset="0%" stop-color="#13071F" />
      <stop offset="55%" stop-color="#090212" />
      <stop offset="100%" stop-color="#030108" />
    </linearGradient>
    <radialGradient id="glow" cx="50%" cy="38%" r="58%">
      <stop offset="0%" stop-color="#A855F7" stop-opacity="0.7" />
      <stop offset="55%" stop-color="#7C3AED" stop-opacity="0.24" />
      <stop offset="100%" stop-color="#020005" stop-opacity="0" />
    </radialGradient>
    <linearGradient id="accent" x1="18%" y1="16%" x2="82%" y2="84%">
      <stop offset="0%" stop-color="#8B5CF6" />
      <stop offset="55%" stop-color="#D946EF" />
      <stop offset="100%" stop-color="#60A5FA" />
    </linearGradient>
    <filter id="softGlow" x="-40%" y="-40%" width="180%" height="180%">
      <feGaussianBlur stdDeviation="2.8" />
    </filter>
  </defs>

  <rect x="4" y="4" width="56" height="56" rx="18" fill="url(#bg)" />
  <rect x="4" y="4" width="56" height="56" rx="18" fill="url(#glow)" />

  <circle cx="20" cy="17" r="1.4" fill="#F8FAFC" opacity="0.95" />
  <circle cx="48" cy="15" r="1.1" fill="#C084FC" opacity="0.85" />
  <circle cx="47" cy="46" r="1.4" fill="#60A5FA" opacity="0.9" />

  <ellipse
    cx="32"
    cy="32"
    rx="19"
    ry="12.2"
    transform="rotate(-18 32 32)"
    fill="none"
    stroke="url(#accent)"
    stroke-width="2.7"
    opacity="0.88"
  />
  <ellipse
    cx="32"
    cy="32"
    rx="19"
    ry="12.2"
    transform="rotate(-18 32 32)"
    fill="none"
    stroke="#D946EF"
    stroke-width="5.5"
    opacity="0.16"
    filter="url(#softGlow)"
  />

  <circle cx="47" cy="24" r="3.2" fill="#F8FAFC" opacity="0.96" />
  <circle cx="47" cy="24" r="5.4" fill="#8B5CF6" opacity="0.22" filter="url(#softGlow)" />

  <path
    d="M40 20.5c-2-2.3-5.3-3.7-8.9-3.7-5.8 0-9.9 2.8-9.9 6.9 0 3 2 5.1 6.4 6.4l5.1 1.6c2.9.9 4.2 2.1 4.2 4.1 0 2.7-2.5 4.6-6.7 4.6-3.9 0-7.5-1.5-10.1-4.1"
    fill="none"
    stroke="url(#accent)"
    stroke-width="5.9"
    stroke-linecap="round"
    stroke-linejoin="round"
  />
  <path
    d="M40 20.5c-2-2.3-5.3-3.7-8.9-3.7-5.8 0-9.9 2.8-9.9 6.9 0 3 2 5.1 6.4 6.4l5.1 1.6c2.9.9 4.2 2.1 4.2 4.1 0 2.7-2.5 4.6-6.7 4.6-3.9 0-7.5-1.5-10.1-4.1"
    fill="none"
    stroke="#F5D0FE"
    stroke-width="1.4"
    stroke-linecap="round"
    stroke-linejoin="round"
    opacity="0.95"
  />
</svg>
